<?xml version="1.0" encoding="UTF-8"?> <svg xmlns="http://www.w3.org/2000/svg" id="Слой_1" data-name="Слой 1" viewBox="0 0 579.28125 72"><defs><style>.cls-1{fill:#454545;}</style></defs><path class="cls-1" d="M563.9314,70.28331H550.50085V13.22861H535.05066V1.61571h44.23v11.6129h-15.4502v57.0547ZM528.63953,4.24123V19.99439a28.74468,28.74468,0,0,0-6.0589-4.84713,21.63941,21.63941,0,0,0-21.913.101,23.0499,23.0499,0,0,0-8.88641,9.49228,25.35719,25.35719,0,0,0-2.52457,11.51192c0,7.27069,2.52451,13.12763,7.47263,17.57083a22.04407,22.04407,0,0,0,15.24826,5.85694,21.48934,21.48934,0,0,0,8.68448-1.71669,27.32914,27.32914,0,0,0,7.87652-5.85694V67.85974a38.92626,38.92626,0,0,1-16.864,4.03927,36.75035,36.75035,0,0,1-17.87372-4.54417,34.546,34.546,0,0,1-14.2384-14.23843,35.11765,35.11765,0,0,1-4.14029-16.662,36.33732,36.33732,0,0,1,4.74612-18.07574A35.20894,35.20894,0,0,1,494.00275,4.74614,35.11553,35.11553,0,0,1,511.8765,0,36.84044,36.84044,0,0,1,528.63953,4.24123Zm-57.1557,8.98738H446.84427V28.47686H470.575v11.6129H446.84427V58.67041h24.63956v11.6129H433.4137V1.61571h38.07013ZM402.61426,33.122h-5.453V13.22861h4.64514q6.96771,0,9.99716,2.12062c2.22162,1.71669,3.43338,4.4432,3.43338,7.87658C415.136,29.8906,410.99576,33.122,402.61426,33.122Zm19.2875-26.25526a16.59747,16.59747,0,0,0-7.37164-4.03927,38.83882,38.83882,0,0,0-10.805-1.21178h-19.8934V70.38429h13.32962V44.83591h8.68438c7.87659,0,13.83451-2.01964,17.57083-6.1599,3.63535-3.93829,5.554-9.08836,5.554-15.34922C428.86954,16.561,426.54694,11.007,421.90176,6.86676Zm-47.05749,1.1108-6.96771,9.18934c-3.3324-3.63534-6.96772-5.453-11.108-5.453a10.04,10.04,0,0,0-7.16977,2.52455,6.90471,6.90471,0,0,0-2.42353,5.15007,5.54554,5.54554,0,0,0,2.22159,4.54418c1.41373,1.21178,4.24124,2.52454,8.17954,4.03927a78.56587,78.56587,0,0,1,8.5834,3.53436,22.89977,22.89977,0,0,1,5.15012,3.43338c4.03927,3.43338,6.05886,8.28051,6.05886,14.44039,0,7.37167-2.62551,13.22861-7.7756,17.36887C365.251,70.28331,359.798,72,353.43616,72c-9.69425,0-17.57083-4.34222-23.62976-13.12763l8.68444-8.2805a19.27643,19.27643,0,0,0,3.73633,4.9481,15.46451,15.46451,0,0,0,10.70407,4.24123q5.30156,0,8.17951-3.33239a9.45934,9.45934,0,0,0,2.42358-6.36185,8.2124,8.2124,0,0,0-3.73633-6.96775c-1.21176-.90883-4.34222-2.2216-9.49227-4.14025-5.25107-1.91865-9.08835-3.83731-11.61289-5.95792-3.63534-3.02946-5.35208-7.16971-5.35208-12.52174,0-7.27069,3.02948-12.82469,9.08838-16.561A22.30038,22.30038,0,0,1,354.84988.50491,28.83633,28.83633,0,0,1,374.84427,7.97756ZM306.98456,52.6115a22.21674,22.21674,0,0,1-32.31418,0,24.134,24.134,0,0,1-4.94812-25.95231,22.904,22.904,0,0,1,4.94812-7.57363,21.419,21.419,0,0,1,16.05612-6.96775,22.17346,22.17346,0,0,1,16.25806,6.96775,22.90408,22.90408,0,0,1,4.94809,7.57363,25.89034,25.89034,0,0,1,1.71667,9.08835A23.23224,23.23224,0,0,1,306.98456,52.6115Zm10.906-41.09958Q307.136,0,290.92847,0a41.7214,41.7214,0,0,0-11.411,1.71669A34.88,34.88,0,0,0,265.885,9.29032c-7.87659,7.16971-11.8149,15.75316-11.8149,26.0533A35.56032,35.56032,0,0,0,273.05469,67.5568,37.10707,37.10707,0,0,0,290.42352,71.798a37.95411,37.95411,0,0,0,18.47968-4.54418,34.20427,34.20427,0,0,0,13.73352-13.32959,34.34575,34.34575,0,0,0,4.84714-17.97476A34.67635,34.67635,0,0,0,317.89056,11.51192ZM230.13744,31.0014c-2.12062,1.41375-5.15009,2.12062-9.18937,2.12062h-3.83729V12.52174H221.15c4.24123,0,7.47267.80785,9.69427,2.52454a9.61461,9.61461,0,0,1,3.33239,7.67462,10.59551,10.59551,0,0,1-1.1108,4.74614A9.33894,9.33894,0,0,1,230.13744,31.0014Zm2.01962,10.30014a20.18643,20.18643,0,0,0,9.49229-4.34221,16.96981,16.96981,0,0,0,4.54416-6.46284,22.57782,22.57782,0,0,0,1.71669-8.68442,22.1982,22.1982,0,0,0-1.91864-8.78542,17.27263,17.27263,0,0,0-4.84714-6.6648c-4.03926-3.3324-9.89621-4.84713-17.57081-4.84713h-19.8934V70.28331h13.43057V42.6143h1.71669l18.47966,27.669h16.662ZM172.88077,33.122h-5.554V13.22861H171.972c4.74614,0,7.97754.70688,9.99718,2.12062,2.22159,1.71669,3.43338,4.4432,3.43338,7.87658C185.30153,29.8906,181.16127,33.122,172.88077,33.122ZM192.1683,6.86676a16.59767,16.59767,0,0,0-7.3717-4.03927,39.33647,39.33647,0,0,0-10.805-1.21178H153.99719V70.38429h13.32958V44.83591h8.78543c7.87657,0,13.7335-2.01964,17.46982-6.1599,3.63534-3.93829,5.554-9.08836,5.554-15.34922C199.035,16.561,196.71248,11.007,192.1683,6.86676ZM126.53014,52.6115a22.33387,22.33387,0,0,1-32.41515,0A23.45355,23.45355,0,0,1,87.4502,35.54558a23.70048,23.70048,0,0,1,1.81768-8.88639A24.351,24.351,0,0,1,94.115,19.08556a21.635,21.635,0,0,1,16.15709-6.96775,22.17343,22.17343,0,0,1,16.25806,6.96775,22.66129,22.66129,0,0,1,4.84713,7.57363,23.9262,23.9262,0,0,1,1.81766,9.08835A22.832,22.832,0,0,1,126.53014,52.6115Zm10.906-41.09958A35.503,35.503,0,0,0,110.474,0,42.42526,42.42526,0,0,0,98.96212,1.71669,35.20788,35.20788,0,0,0,85.43056,9.29032C77.554,16.46,73.51472,25.04348,73.51472,35.34362A35.48916,35.48916,0,0,0,78.0589,53.31837,34.69166,34.69166,0,0,0,92.60027,67.5568,36.81291,36.81291,0,0,0,109.96914,71.798a37.954,37.954,0,0,0,18.47965-4.54418,34.20434,34.20434,0,0,0,13.73352-13.32959,35.31437,35.31437,0,0,0,4.84714-17.97476A34.24421,34.24421,0,0,0,137.43616,11.51192ZM66.74894,1.61571v68.6676H53.31837V1.61571ZM28.57784,57.66059q-3.02946,1.81767-9.39131,1.81767h-5.756V40.3927h4.94811a32.51257,32.51257,0,0,1,6.26087.40393,11.01675,11.01675,0,0,1,3.93829,1.51473A8.47359,8.47359,0,0,1,32.51612,49.885C32.61711,53.52034,31.20336,56.04488,28.57784,57.66059ZM13.43057,12.52174h3.93829c3.43338,0,6.05891.70687,7.67462,2.2216,1.71669,1.41374,2.62552,3.63534,2.62552,6.56381a8.74079,8.74079,0,0,1-2.62552,6.6648c-1.71669,1.51473-4.34222,2.2216-7.7756,2.2216H13.43057ZM41.5035,37.86816c-2.01963-2.01963-4.84712-3.43338-8.88639-4.34222a14.5931,14.5931,0,0,0,4.84712-4.03926,16.58049,16.58049,0,0,0,2.62553-9.69425,19.99433,19.99433,0,0,0-1.71669-8.07855,16.04049,16.04049,0,0,0-4.4432-6.0589c-3.43338-2.72651-9.08836-4.14026-16.96494-4.14026H0V70.28331H23.12482c7.47265,0,13.12763-1.81767,17.06592-5.352a18.18717,18.18717,0,0,0,6.05891-14.13744C46.35063,45.4418,44.73492,41.20056,41.5035,37.86816Z"></path></svg> 