<?xml version="1.0" encoding="UTF-8"?>
<svg xmlns="http://www.w3.org/2000/svg" width="120" height="18" viewBox="0 0 120 18" fill="none">
  <g clip-path="url(#clip0_1_20)">
    <path d="M0 17.798V0.110352H1.26192V16.6541H14.9243V17.798H0V17.798Z" fill="#2f2427"></path>
    <path d="M13.6626 13.0479V0.110352H14.9245V13.0479H13.6626Z" fill="#2f2427"></path>
    <path d="M39.1577 13.0479V0.110352H40.4196V13.0479H39.1577Z" fill="#2f2427"></path>
    <path d="M52.9381 0H52.1986L44.7417 17.7981H46.0296L49.043 10.5598H56.0174L59.0515 17.7981H60.4505L52.9381 0ZM49.4439 9.50729C49.4439 9.50729 52.2264 2.83493 52.5007 2.01706C52.6291 2.38114 55.5869 9.50729 55.5869 9.50729H49.4439Z" fill="#2f2427"></path>
    <path d="M112.298 0H111.559L104.102 17.7981H105.39L108.403 10.5598H115.378L118.412 17.7981H119.811L112.298 0ZM108.804 9.50729C108.804 9.50729 111.587 2.83493 111.861 2.01706C111.989 2.38114 114.947 9.50729 114.947 9.50729H108.804Z" fill="#2f2427"></path>
    <path d="M64.21 13.0789V0.0361328H64.814L76.4924 9.76773C76.9124 10.1128 77.3012 10.4527 77.6571 10.7909C78.0129 11.1274 78.2004 11.3034 78.2195 11.3172C78.183 10.9997 78.1657 10.3785 78.1657 9.45024V0.117229H79.4258V13.0841H78.3583L66.9247 3.48705L65.4163 2.25162C65.4528 2.51734 65.4719 2.75201 65.4719 3.73034V13.0789H64.21Z" fill="#2f2427"></path>
    <path d="M85.0396 13.0686V0.0275879H85.6436L97.322 9.75918C97.742 10.1043 98.1308 10.4442 98.4867 10.7824C98.8425 11.1188 99.03 11.2948 99.0491 11.3086C99.0126 10.9912 98.9953 10.37 98.9953 9.4417V0.106959H100.255V13.0738H99.1879L87.7543 3.47678L86.2459 2.24135C86.2824 2.50707 86.3015 2.74174 86.3015 3.72007V13.0686H85.0396V13.0686Z" fill="#2f2427"></path>
    <path d="M100.261 16.6472H64.2085V17.7981H100.261V16.6472Z" fill="#2f2427"></path>
    <path d="M35.3579 17.1442C34.1325 16.9975 33.0008 16.3884 31.9575 15.3169C31.4455 14.7544 30.1072 13.041 27.9392 10.1785H27.934V10.1733C27.9323 10.1716 27.9305 10.1681 27.9288 10.1664C29.7323 9.30368 30.9768 7.47987 30.9768 5.36963C30.9768 2.49156 28.6578 0.120782 25.7625 0.0207055C25.5664 0.00690184 25.365 0 25.1585 0C24.0632 0 22.7266 0.063842 21.1558 0.191526V17.7981H22.4177V10.5477C23.8289 10.5581 25.1793 10.5581 26.6599 10.5581C28.7984 13.5 30.2999 15.4342 30.93 16.1072C31.5601 16.7784 32.1953 17.2563 32.8359 17.5376C33.3479 17.7636 33.9867 17.9016 34.747 17.9586V17.9603C34.773 17.962 34.7973 17.9638 34.8233 17.9638C34.9396 17.9707 35.0577 17.9776 35.1792 17.981C37.3124 18.069 38.1404 17.8275 40.4178 17.5376V16.875C37.4565 17.2943 36.1009 17.2356 35.3579 17.1442ZM25.9743 9.52281C24.8408 9.52281 23.6362 9.50728 22.4177 9.51246V1.19919C23.4053 1.12673 24.2628 1.08877 24.9953 1.08877C25.2626 1.08877 25.5161 1.10429 25.7643 1.13018V1.125C27.9184 1.37347 29.5899 3.18002 29.5899 5.36963C29.5899 7.04678 28.6144 8.50652 27.1893 9.20533C27.1546 9.22258 27.1199 9.23984 27.0852 9.25709C27.0071 9.29333 26.9272 9.32611 26.8474 9.35717C26.5402 9.47105 26.2451 9.52281 25.9743 9.52281Z" fill="#2f2427"></path>
  </g>
  <defs>
    <clipPath id="clip0_1_20">
      <rect width="119.812" height="18" fill="#2f2427"></rect>
    </clipPath>
  </defs>
</svg>
