<svg xmlns="http://www.w3.org/2000/svg" width="647.56" height="120.36" viewBox="0 0 647.56 120.36"><g> <path class="cls-1" d="m40.12,45.08c-14.01-2.68-26.01-4.83-26.01-15.93,0-9.91,9.82-15.27,22.44-15.27,14.24,0,24.19,7.5,26.11,20.89h11.83C72.47,14.11,56.68,3.8,36.92,3.8S2.28,12.59,2.28,29.41c0,18.97,18.47,23.07,34.63,26.11,14.67,2.81,26.01,5.09,26.01,16.69,0,9.42-9.06,14.64-23.46,14.64-15.66,0-25.98-8.26-28.12-21.65H0c2.02,19.99,17.81,31.59,39.59,31.59s35.3-9.55,35.3-25.22c0-18.34-17.32-23.07-34.77-26.5Z"></path><path class="cls-1" d="m115.01,62.53l26.37-31.33h-12.13l-22.67,27h-11.2V4.43h-10.18v90.45h10.18v-27.13h11.1l22.67,27.13h12.59l-26.74-32.35Z"></path><path class="cls-1" d="m146.34,0l6.87,22.14h1.26l6.91-22.14h-15.04Zm2.41,31.2v63.68h10.18V31.2h-10.18Z"></path> <path class="cls-1" d="m225.59,44.19c-.89-1.88-2.02-3.6-3.34-5.12-4.83-5.85-12.13-9.15-21.08-9.15-10.21,0-18.74,4.99-23.6,12.89v-11.6h-9.42v63.68h10.21v-33.25c0-12.72,9.02-22.27,21.25-22.27,7.63,0,13.32,3.34,16.43,9.35,1.26,2.35,2.12,5.12,2.51,8.3.2,1.45.3,3.01.3,4.63v33.25h10.21v-34.63c0-6.15-1.22-11.57-3.47-16.06Z"></path><path class="cls-1" d="m340.5,58.59c-4.13-.76-7.96-1.39-11.1-2.35-2.21-.63-4.06-1.45-5.45-2.51-1.69-1.29-2.68-3.01-2.68-5.35,0-3.8,2.21-6.21,5.32-7.7,1.88-.93,4.06-1.52,6.28-1.78,1.49-.23,2.94-.33,4.33-.33,9.29,0,18.21,3.83,20.13,13.12h10.44c-1.92-15.53-15.3-22.01-29.45-22.01-2.02,0-4.1.13-6.15.43-1.95.23-3.9.63-5.75,1.16-8.43,2.48-15.37,7.93-15.37,17.65.07,6.97,3.83,11.17,9.48,13.95,1.72.86,3.6,1.59,5.65,2.21,3.67,1.16,7.77,2.02,12,2.81,11.24,2.05,19.5,2.81,19.5,10.05,0,7.9-10.58,10.08-17.32,10.08-9.22,0-17.05-3.67-20.19-10.84-.5-1.06-.86-2.21-1.09-3.44h-10.31c.36,2.71,1.09,5.16,2.12,7.34.89,1.92,2.02,3.67,3.34,5.19,5.92,6.97,15.8,10.15,26.27,10.15,13.12,0,27.76-5.35,27.76-18.84s-13.38-16.33-27.76-18.97Z"></path><path class="cls-1" d="m406.59,29.91c-19.37,0-34.01,14.28-34.01,33.11s14.64,33.15,34.01,33.15,34.01-14.41,34.01-33.15-14.64-33.11-34.01-33.11Zm0,56.94c-13.75,0-23.7-10.05-23.7-23.83s9.95-23.79,23.7-23.79,23.7,10.05,23.7,23.79-10.08,23.83-23.7,23.83Z"></path><path class="cls-1" d="m271.06,29.91c-19.37,0-34.01,14.28-34.01,33.11s14.64,33.15,34.01,33.15,34.01-14.41,34.01-33.15-14.64-33.11-34.01-33.11Zm0,56.94c-13.75,0-23.7-10.05-23.7-23.83s9.95-23.79,23.7-23.79,23.7,10.05,23.7,23.79-10.08,23.83-23.7,23.83Z"></path><path class="cls-1" d="m481.11,29.91c-10.81,0-19.6,5.22-24.69,13.52v-12.23h-9.45v89.16h10.21v-36.95c4.96,7.77,13.48,12.76,23.93,12.76,18.11,0,31.86-14.28,31.86-33.15s-13.75-33.11-31.86-33.11Zm-1.39,56.94c-12.86,0-22.8-10.31-22.8-23.83s9.95-23.79,22.8-23.79,22.94,10.31,22.94,23.79-10.08,23.83-22.94,23.83Z"></path><path class="cls-1" d="m551.23,29.91c-9.91,0-18.08,4.59-22.77,12.1V4.43h-10.21v90.45h10.21v-33.25c0-12.72,9.02-22.27,21.25-22.27s19.23,8.26,19.23,22.27v33.25h10.21v-34.63c0-18.61-10.97-30.34-27.93-30.34Z"></path> </g> <path class="cls-1" d="m647.56,31.2l-25.05,59.78-7.64,19.27h0c-2.48,5.94-8.29,9.82-14.73,9.82h-6.52v-10.18h4.16c4.24,0,8.07-2.56,9.69-6.48h0s3.67-10.05,3.67-10.05c-.26-.96-.63-1.85-1.16-2.81l-31.86-59.35h11.6l24.82,47.49c.33.73.96,2.25,1.26,3.54l21.18-51.03h10.58Z"></path></svg>
