<svg width="64" height="64" viewBox="0 0 64 64" fill="none" xmlns="http://www.w3.org/2000/svg">
  <rect width="64" height="64" rx="18" fill="url(#bg)"/>
  <g fill="white">
    <path d="M31.9219 18.25C33.5726 21.0312 34.3407 23.6981 34.2264 26.2508C34.1092 28.8665 33.0762 31.2585 31.1274 33.427C29.4625 31.3527 28.5686 29.004 28.4471 26.3818C28.3289 23.8309 29.1204 21.1199 30.8217 18.25H31.9219Z"/>
    <path d="M24.2734 21.4609C26.5865 23.2353 28.1083 25.3624 28.8388 27.8423C29.5892 30.3905 29.3462 33.0384 28.1099 35.786C25.51 34.4281 23.6938 32.5829 22.6613 30.2502C21.6568 27.9737 21.7704 25.0438 23.0018 21.4609H24.2734Z"/>
    <path d="M39.1201 21.4609C40.3515 25.0438 40.4651 27.9737 39.4606 30.2502C38.4281 32.5829 36.6119 34.4281 34.012 35.786C32.7757 33.0384 32.5327 30.3905 33.2831 27.8423C34.0136 25.3624 35.5354 23.2353 37.8486 21.4609H39.1201Z"/>
    <path d="M19.6172 29.4297C22.2616 29.7561 24.3854 30.6765 25.9888 32.1909C27.6339 33.7489 28.5195 35.8973 28.6457 38.6362C25.7604 38.8591 23.4292 38.2775 21.6522 36.8915C19.9198 35.5401 19.0691 33.1871 19.1004 29.8296L19.6172 29.4297Z"/>
    <path d="M44.3828 29.4297L44.8995 29.8296C44.9309 33.1871 44.0801 35.5401 42.3478 36.8915C40.5708 38.2775 38.2396 38.8591 35.3543 38.6362C35.4805 35.8973 36.3661 33.7489 38.0112 32.1909C39.6146 30.6765 41.7384 29.7561 44.3828 29.4297Z"/>
  </g>
  <text x="32" y="48.2" text-anchor="middle" fill="white" font-size="7.6" font-family="Arial, Helvetica, sans-serif" font-weight="700" letter-spacing="0.08em">HUAWEI</text>
  <defs>
    <linearGradient id="bg" x1="7" y1="4" x2="57" y2="61" gradientUnits="userSpaceOnUse">
      <stop stop-color="#FF756A"/>
      <stop offset="0.55" stop-color="#F85549"/>
      <stop offset="1" stop-color="#EB4B42"/>
    </linearGradient>
  </defs>
</svg>
