<svg xmlns="http://www.w3.org/2000/svg" viewBox="0 0 64 64" role="img" aria-label="Android">
  <g fill="#000">
    <path d="M20.4 20.2h23.2a5 5 0 0 1 5 5v18.3a4 4 0 0 1-4 4h-1.5v7.2a3.3 3.3 0 0 1-6.6 0v-7.2h-9v7.2a3.3 3.3 0 0 1-6.6 0v-7.2h-1.5a4 4 0 0 1-4-4V25.2a5 5 0 0 1 5-5Z"/>
    <path d="M16.1 23.4a3.3 3.3 0 0 1 3.3 3.3v14.2a3.3 3.3 0 1 1-6.6 0V26.7a3.3 3.3 0 0 1 3.3-3.3Zm31.8 0a3.3 3.3 0 0 1 3.3 3.3v14.2a3.3 3.3 0 1 1-6.6 0V26.7a3.3 3.3 0 0 1 3.3-3.3Z"/>
    <path d="M20.8 17.9a12 12 0 0 1 22.4 0H20.8Zm2.4-9.5 2.5 4.2m15.1-4.2-2.5 4.2" stroke="#000" stroke-width="2.4" stroke-linecap="round" fill="none"/>
    <circle cx="27" cy="14.3" r="1.25" fill="#fff"/>
    <circle cx="37" cy="14.3" r="1.25" fill="#fff"/>
  </g>
</svg>
