<svg width="64" height="64" viewBox="0 0 64 64" fill="none" xmlns="http://www.w3.org/2000/svg">
  <rect width="64" height="64" rx="18" fill="url(#bg)"/>
  <path d="M40.8388 33.2817C40.8189 29.0444 44.3366 26.9928 44.4949 26.8942C42.5151 23.9706 39.4461 23.5728 38.3434 23.5403C35.6946 23.2644 33.1252 25.1578 31.7747 25.1578C30.3972 25.1578 28.3193 23.5683 26.0827 23.6133C23.2003 23.6583 20.5034 25.3132 19.0299 27.9002C15.9905 33.1885 18.2584 40.9482 21.1717 45.2064C22.6277 47.2928 24.3309 49.6237 26.5532 49.5425C28.7275 49.4486 29.5399 48.1586 32.1641 48.1586C34.7637 48.1586 35.5268 49.5425 37.7924 49.4911C40.1279 49.4486 41.6001 47.3852 43.0072 45.2783C44.6901 42.8851 45.3653 40.5304 45.3922 40.4094C45.3381 40.3914 40.884 38.6361 40.8388 33.2817Z" fill="white"/>
  <path d="M36.6133 20.8139C37.785 19.3635 38.5869 17.3928 38.3642 15.3862C36.6717 15.4602 34.5551 16.5532 33.339 17.9784C32.2596 19.2367 31.2959 21.2811 31.5456 23.2114C33.4476 23.3511 35.3988 22.2368 36.6133 20.8139Z" fill="white"/>
  <defs>
    <linearGradient id="bg" x1="8" y1="5" x2="56" y2="61" gradientUnits="userSpaceOnUse">
      <stop stop-color="#56606B"/>
      <stop offset="0.56" stop-color="#39424B"/>
      <stop offset="1" stop-color="#2A3138"/>
    </linearGradient>
  </defs>
</svg>
